Coordinates
version=1
nRows=22
nColumns=24
inDegrees=yes

Units are S.I. units (second, meters, Newtons, ...)
Angles are in degrees.

endheader
time	pelvis_tilt	pelvis_list	pelvis_rotation	pelvis_tx	pelvis_ty	pelvis_tz	hip_flexion_r	hip_adduction_r	hip_rotation_r	knee_angle_r	ankle_angle_r	subtalar_angle_r	mtp_angle_r	hip_flexion_l	hip_adduction_l	hip_rotation_l	knee_angle_l	ankle_angle_l	subtalar_angle_l	mtp_angle_l	lumbar_extension	lumbar_bending	lumbar_rotation
      3.57000000	      5.56796582	     -5.50704936	     -6.70953474	     -0.79907059	      0.74423048	     -0.16460339	    -19.53298965	      8.21881800	     13.63472428	     -6.96144566	     15.11256058	     -8.82009478	      0.00000000	      8.82788664	     -5.86018030	     -7.56568814	      3.95740121	      2.49523267	    -16.48048237	      0.00000000	    -24.24106493	     -2.26847481	      2.51377740
      3.58000000	      5.62919007	     -5.29003704	     -6.94711063	     -0.78894510	      0.74351974	     -0.16576463	    -19.71563230	      7.80565277	     13.94642735	     -8.23809280	     15.20525572	     -8.88833007	      0.00000000	      8.33874959	     -5.45721022	     -7.16459516	      3.95909666	      1.50374515	    -17.70951605	      0.00000000	    -23.94358787	     -2.53373466	      2.64635355
      3.59000000	      5.67785734	     -4.95498832	     -7.06135048	     -0.77879388	      0.74304780	     -0.16705457	    -19.74609205	      7.34760395	     13.92231790	     -9.70498762	     15.20406732	     -8.86990450	      0.00000000	      7.94346730	     -4.93010308	     -6.39056856	      3.58040132	      0.10856778	    -19.41768015	      0.00000000	    -23.64690663	     -2.89990265	      2.62373850
      3.60000000	      5.77294423	     -4.47317981	     -7.06830986	     -0.76860333	      0.74290692	     -0.16842697	    -19.69532920	      6.80682483	     13.66966298	    -11.34785838	     14.99324605	     -8.92738141	      0.00000000	      7.61255940	     -4.24263353	     -5.52806492	      2.83941276	     -1.31656911	    -21.09874280	      0.00000000	    -23.41523353	     -3.42779424	      2.48606691
      3.61000000	      5.91026520	     -3.86678903	     -6.87788929	     -0.75837884	      0.74307763	     -0.16995241	    -19.54745294	      6.24084058	     13.11325839	    -13.18829921	     14.51403869	     -9.11878392	      0.00000000	      7.39343322	     -3.41020942	     -4.60623921	      1.75708918	     -2.50775591	    -22.45817715	      0.00000000	    -23.25877743	     -4.06224401	      2.08353696
      3.62000000	      6.16506070	     -3.14729727	     -6.58114105	     -0.74812875	      0.74367083	     -0.17150199	    -19.39373689	      5.62640013	     12.43709885	    -15.21441291	     13.64264089	     -9.59385239	      0.00000000	      7.22281701	     -2.44970816	     -4.26338304	      0.34457422	     -2.91841273	    -22.57369386	      0.00000000	    -23.26722498	     -4.84067856	      1.57368791
      3.63000000	      6.39572612	     -2.42706821	     -6.12665157	     -0.73788179	      0.74441772	     -0.17316079	    -18.99617214	      5.10546783	     11.46088616	    -17.59139177	     12.56018529	    -10.08209709	      0.00000000	      7.08540511	     -1.49868048	     -3.69429150	     -1.09328360	     -3.25457293	    -22.78495253	      0.00000000	    -23.29540047	     -5.58137290	      0.91856330
      3.64000000	      6.69377415	     -1.70672680	     -5.65189667	     -0.72758383	      0.74541079	     -0.17481194	    -18.50392777	      4.58397345	     10.32376814	    -20.20164192	     11.01220952	    -10.54881153	      0.00000000	      6.83263519	     -0.55511839	     -3.25312168	     -2.49078168	     -3.29301927	    -22.86779939	      0.00000000	    -23.41917326	     -6.34048892	      0.30956276
      3.65000000	      6.93620864	     -1.04329332	     -5.11207488	     -0.71732335	      0.74640260	     -0.17654619	    -17.70181365	      4.13887516	      9.01030878	    -23.17569078	      9.23679424	    -11.08009469	      0.00000000	      6.52673963	      0.32072529	     -2.82219180	     -3.69462985	     -3.12356535	    -22.79109077	      0.00000000	    -23.51788635	     -6.99201275	     -0.39579851
      3.66000000	      7.09399196	     -0.45840508	     -4.63915246	     -0.70711112	      0.74734002	     -0.17826330	    -16.60399128	      3.72517882	      7.74171913	    -26.39984597	      6.95826161	    -11.69508529	      0.00000000	      6.22092653	      1.09057460	     -2.70928613	     -4.76451953	     -2.52945120	    -22.35993852	      0.00000000	    -23.52922134	     -7.55498713	     -0.97392762
      3.67000000	      7.29064927	      0.09646302	     -4.22877068	     -0.69696776	      0.74826991	     -0.17999936	    -15.36677752	      3.26803716	      6.53713283	    -29.79452123	      4.29054876	    -12.48723955	      0.00000000	      5.68462615	      1.83898485	     -2.67372123	     -5.51907598	     -1.83603526	    -21.91406586	      0.00000000	    -23.59699332	     -8.08438992	     -1.49161573
      3.68000000	      7.51121796	      0.58837279	     -3.93345638	     -0.68691792	      0.74915369	     -0.18172864	    -13.99642204	      2.77283542	      5.45870537	    -33.28829143	      1.25591478	    -13.44420785	      0.00000000	      4.93330992	      2.52865219	     -2.82385020	     -5.95548332	     -0.97863286	    -21.31278638	      0.00000000	    -23.69099453	     -8.53552467	     -1.95196530
      3.69000000	      7.58161013	      1.06647080	     -3.74068609	     -0.67705823	      0.74970426	     -0.18349957	    -12.23710905	      2.16976425	      4.38510138	    -36.96487948	     -1.63950640	    -14.18205100	      0.00000000	      4.20733667	      3.22761484	     -2.75876838	     -6.15773696	     -0.25352205	    -21.25512561	      0.00000000	    -23.60996631	     -8.94826624	     -2.32473929
      3.70000000	      7.65728889	      1.51655212	     -3.62865380	     -0.66740385	      0.75014363	     -0.18525010	    -10.37504706	      1.51756329	      3.47417131	    -40.59895087	     -4.48845252	    -15.16516609	      0.00000000	      3.37152790	      3.91415979	     -2.72231335	     -6.16892198	      0.48433228	    -21.19871875	      0.00000000	    -23.55208186	     -9.31882943	     -2.63588089
      3.71000000	      7.71842669	      1.95866365	     -3.57722628	     -0.65797383	      0.75046118	     -0.18696532	     -8.40826013	      0.81352548	      2.69859566	    -44.14171130	     -6.96294738	    -16.24858660	      0.00000000	      2.49066918	      4.60352899	     -2.68148453	     -6.05853968	      1.24347230	    -21.15207717	      0.00000000	    -23.49663870	     -9.66535025	     -2.92742381
      3.72000000	      7.78008676	      2.35966973	     -3.56406545	     -0.64876540	      0.75072349	     -0.18859193	     -6.40547075	      0.13578921	      2.08521104	    -47.49308253	     -8.91437079	    -17.52091596	      0.00000000	      1.57241118	      5.24804683	     -2.63885627	     -5.86937041	      2.09464035	    -21.05076197	      0.00000000	    -23.46461238	     -9.96604159	     -3.19073439
      3.73000000	      7.83355250	      2.74093971	     -3.53162930	     -0.63981354	      0.75096406	     -0.19019209	     -4.36747424	     -0.54796094	      1.49921191	    -50.61483332	    -10.20954116	    -18.81017560	      0.00000000	      0.70170802	      5.86201966	     -2.61498118	     -5.72419529	      2.80795359	    -20.93818458	      0.00000000	    -23.46784042	    -10.21449110	     -3.46240557
      3.74000000	      7.90395863	      3.03588264	     -3.48643310	     -0.63105118	      0.75127258	     -0.19167854	     -2.38866590	     -1.09791209	      1.05496300	    -53.39735146	    -10.94638833	    -20.30841211	      0.00000000	     -0.18793560	      6.36589699	     -2.58293876	     -5.57176058	      3.61597745	    -20.71853251	      0.00000000	    -23.52483096	    -10.37173114	     -3.70473880
      3.75000000	      8.00315910	      3.24649856	     -3.39080343	     -0.62245159	      0.75169917	     -0.19309009	     -0.51042407	     -1.51264612	      0.67964942	    -55.78831773	    -11.13425024	    -21.88862028	      0.00000000	     -1.08923182	      6.75749912	     -2.58180124	     -5.44636991	      4.45814400	    -20.33280204	      0.00000000	    -23.65631373	    -10.42262624	     -3.97040233
      3.76000000	      8.18356525	      3.39883753	     -3.20434952	     -0.61396352	      0.75228855	     -0.19454124	      1.19861243	     -1.88300307	      0.21854819	    -57.77471363	    -10.73770391	    -23.16910285	      0.00000000	     -2.10234653	      7.08241147	     -2.37367106	     -5.27953923	      5.14832918	    -20.10074199	      0.00000000	    -23.92682846	    -10.37886220	     -4.27232639
      3.77000000	      8.28892019	      3.35817470	     -2.99799730	     -0.60559469	      0.75293357	     -0.19585013	      2.87338973	     -1.92041816	     -0.05168377	    -59.29499108	    -10.27780676	    -24.73598877	      0.00000000	     -2.94002186	      7.15505711	     -2.51337793	     -5.27476872	      6.09510314	    -19.33764511	      0.00000000	    -24.13504516	    -10.13376730	     -4.44871691
      3.78000000	      8.47599976	      3.26945254	     -2.67620717	     -0.59726120	      0.75370948	     -0.19727370	      4.34408337	     -1.93781811	     -0.45953588	    -60.37999516	     -9.29781454	    -25.68591525	      0.00000000	     -3.95067931	      7.18678700	     -2.18118528	     -5.12959744	      6.72430877	    -19.12274651	      0.00000000	    -24.47174087	     -9.79593352	     -4.73177270
